<svg xmlns="http://www.w3.org/2000/svg" width="321" height="41" viewBox="0 0 321 41">
    <g fill="none" fill-rule="evenodd">
        <path fill="#987831" d="M158.537 31.511l20.701-14.63-21.604 12.878z"/>
        <path fill="#987831" d="M161.875 35.99l1.97-.09L161.043 0z"/>
        <path fill="#987831" d="M162.65 29.597a1.878 1.878 0 0 0 1.8-1.956 1.882 1.882 0 0 0-1.972-1.786 1.88 1.88 0 0 0-1.8 1.956 1.883 1.883 0 0 0 1.972 1.786"/>
        <path fill="#987831" d="M162.594 28.377a.654.654 0 0 0 .627-.68.656.656 0 0 0-.687-.622.653.653 0 0 0-.626.68c.017.36.324.638.686.622"/>
        <path fill="#FFFFFE" d="M162.01 27.751a.553.553 0 0 0 .58.524.55.55 0 0 0 .528-.574.553.553 0 0 0-.579-.524.552.552 0 0 0-.529.574m1.314-.059a.757.757 0 0 1-.725.786.757.757 0 0 1-.793-.718.757.757 0 0 1 .724-.786.758.758 0 0 1 .794.718"/>
        <path fill="#1A1919" d="M25.362 28.995l-.47 5.998c-2.03 3.292-5.479 5.692-10.83 5.692C6 40.647.296 35.182.296 26.736c0-8.293 5.512-13.872 13.991-13.872 3.778 0 6.861 1.108 9.117 2.58l.778 5.398h-.32c-1.172-4.461-4.949-6.83-9.582-6.833-6.776 0-11.092 5.083-11.092 12.687 0 7.682 4.393 12.688 10.874 12.844 5.473-.017 10.103-2.718 10.98-10.545h.32zM47.874 40.15l.006-.383h.487a2.46 2.46 0 0 0 2.469-2.374v-9.896H35.063v9.867a2.459 2.459 0 0 0 2.468 2.403h.488l.006.382h-8.433l.007-.382h.488a2.461 2.461 0 0 0 2.469-2.403v-21.2a2.46 2.46 0 0 0-2.469-2.387H29.6l-.006-.381h8.432l-.007.381h-.487a2.46 2.46 0 0 0-2.468 2.38V26.35h15.773V16.13a2.461 2.461 0 0 0-2.468-2.355h-.488l-.006-.38h8.432l-.007.38h-.487a2.458 2.458 0 0 0-2.468 2.403v21.184a2.458 2.458 0 0 0 2.468 2.403h.488l.006.382-8.432.001zM71.328 13.397c4.67 0 7.534 2.73 7.534 7.182 0 3.7-2.842 7.287-6.549 7.287.827.378 2.012 1.643 2.76 2.69 0 0 3.322 4.703 4.814 6.32 1.551 1.678 2.977 2.87 5.242 2.889v.383h-2.115c-3.586 0-5.512-1.915-6.724-3.35-.438-.519-4.781-6.784-5.077-7.153-1.008-1.255-2.132-2.579-3.54-2.579v-.354s.876.019 2.036-.012c2-.054 4.922-.526 6.016-3.968.17-.535.269-1.45.245-2.289-.095-3.455-1.912-5.67-4.78-5.826-1.966-.106-4.299-.01-4.8-.029v22.777a2.46 2.46 0 0 0 2.47 2.403h.487l.007.382h-8.42l.006-.382h.487a2.459 2.459 0 0 0 2.467-2.385V16.18a2.46 2.46 0 0 0-2.469-2.403h-.487l-.006-.38 10.396-.001zM110.432 26.773c0-7.66-4.36-12.767-10.9-12.767-6.539 0-10.898 5.107-10.898 12.767 0 7.66 4.36 12.767 10.898 12.767 6.54 0 10.9-5.107 10.9-12.767m2.955 0c0 8.346-5.657 13.91-13.855 13.91-8.196 0-13.852-5.564-13.852-13.91s5.656-13.91 13.852-13.91c8.198 0 13.855 5.564 13.855 13.91M145.206 13.397l-.006.382h-.711a2.371 2.371 0 0 0-2.38 2.285v19.744c0 2.463.353 4.877.353 4.877h-.35l-21.02-22.232v19.029a2.37 2.37 0 0 0 2.377 2.286h.713l.005.382h-7.939l.005-.382h.712c1.3 0 2.354-1.033 2.38-2.314V17.599c0-2.608-.355-4.774-.355-4.774h.38l20.99 22.223V16.096a2.37 2.37 0 0 0-2.38-2.317h-.711l-.006-.382h7.943zM173.612 26.773c0-7.66-4.36-12.767-10.9-12.767-6.539 0-10.898 5.107-10.898 12.767 0 7.66 4.36 12.767 10.898 12.767 6.54 0 10.9-5.107 10.9-12.767m2.954 0c0 8.346-5.656 13.91-13.854 13.91-8.196 0-13.852-5.564-13.852-13.91s5.656-13.91 13.852-13.91c8.198 0 13.854 5.564 13.854 13.91M200.087 40.15H184.11l.006-.383h.487a2.46 2.46 0 0 0 2.47-2.403V15.966a2.462 2.462 0 0 0-2.456-2.189h-.488l-.006-.38h11.264c1.661-.015 3.88-.396 4.595-.695V17.528l-.39-.006v-.681a2.288 2.288 0 0 0-2.158-2.274h-7.857V26.38h6.513a1.891 1.891 0 0 0 1.864-1.882v-.564l.377-.004v6.047l-.377-.004v-.563c0-1.016-.81-1.843-1.823-1.882h-6.554v11.45h5.527c4.084 0 5.652-2.094 6.842-5.003h.386l-2.244 6.173z"/>
        <path stroke="#1A1919" stroke-width=".7" d="M200.087 40.15H184.11l.006-.383h.487a2.46 2.46 0 0 0 2.47-2.403V15.966a2.462 2.462 0 0 0-2.456-2.189h-.488l-.006-.38h11.264c1.661-.015 3.88-.396 4.595-.695V17.528l-.39-.006v-.681a2.288 2.288 0 0 0-2.158-2.274h-7.857V26.38h6.513a1.891 1.891 0 0 0 1.864-1.882v-.564l.377-.004v6.047l-.377-.004v-.563c0-1.016-.81-1.843-1.823-1.882h-6.554v11.45h5.527c4.084 0 5.652-2.094 6.842-5.003h.386l-2.244 6.173z"/>
        <path fill="#1A1919" d="M229.959 39.766v.383h-9.398v-.383h.485c1.043 0 1.98-1.25 1.364-2.329l-5.94-9.292-5.928 9.268c-.654 1.08.32 2.353 1.364 2.353h.486v.377h-8.742v-.377h.534c1.618 0 3.104-1.073 3.924-2.252l7.38-10.904-6.766-10.583c-.82-1.18-2.266-2.248-3.885-2.248h-.54v-.381h9.352v.38h-.486c-1.037 0-1.969 1.255-1.373 2.33l5.31 8.272 5.254-8.228c.645-1.085-.261-2.372-1.313-2.372h-.485v-.383h8.69v.383h-.538c-1.62 0-3.065 1.067-3.886 2.246l-6.754 9.86 7.488 11.662c.821 1.175 2.263 2.218 3.877 2.218h.526z"/>
        <path stroke="#1A1919" stroke-width=".7" d="M229.959 39.766v.383h-9.398v-.383h.485c1.043 0 1.98-1.25 1.364-2.329l-5.94-9.292-5.928 9.268c-.654 1.08.32 2.353 1.364 2.353h.486v.377h-8.742v-.377h.534c1.618 0 3.104-1.073 3.924-2.252l7.38-10.904-6.766-10.583c-.82-1.18-2.266-2.248-3.885-2.248h-.54v-.381h9.352v.38h-.486c-1.037 0-1.969 1.255-1.373 2.33l5.31 8.272 5.254-8.228c.645-1.085-.261-2.372-1.313-2.372h-.485v-.383h8.69v.383h-.538c-1.62 0-3.065 1.067-3.886 2.246l-6.754 9.86 7.488 11.662c.821 1.175 2.263 2.218 3.877 2.218h.526z"/>
        <path fill="#1A1919" d="M241.923 13.399c4.927 0 7.948 2.805 7.948 7.38 0 5.825-6.377 8.927-11.213 6.4l-.005-.361s6.341 1.356 8.08-4.118c.172-.538.27-1.46.247-2.305-.096-3.51-1.918-5.85-5.196-5.85h-4.444v22.82a2.46 2.46 0 0 0 2.469 2.403h.488l.006.382h-8.437l.006-.382h.487a2.462 2.462 0 0 0 2.47-2.403V15.98a2.462 2.462 0 0 0-2.456-2.202h-.487l-.007-.38 10.044.001z"/>
        <path stroke="#1A1919" stroke-width=".7" d="M241.923 13.399c4.927 0 7.948 2.805 7.948 7.38 0 5.825-6.377 8.927-11.213 6.4l-.005-.361s6.341 1.356 8.08-4.118c.172-.538.27-1.46.247-2.305-.096-3.51-1.918-5.85-5.196-5.85h-4.444v22.82a2.46 2.46 0 0 0 2.469 2.403h.488l.006.382h-8.437l.006-.382h.487a2.462 2.462 0 0 0 2.47-2.403V15.98a2.462 2.462 0 0 0-2.456-2.202h-.487l-.007-.38 10.044.001z"/>
        <path fill="#1A1919" d="M269.897 40.15h-15.979l.007-.383h.487a2.46 2.46 0 0 0 2.469-2.403V15.966a2.462 2.462 0 0 0-2.455-2.189h-.489l-.005-.38h11.263c1.661-.015 3.88-.396 4.595-.695V17.528l-.39-.006v-.681a2.288 2.288 0 0 0-2.157-2.274h-7.858V26.38h6.513a1.891 1.891 0 0 0 1.865-1.882v-.564l.376-.004v6.047l-.376-.004v-.563c0-1.016-.81-1.843-1.824-1.882h-6.554v11.45h5.528c4.084 0 5.652-2.094 6.841-5.003h.386l-2.243 6.173z"/>
        <path stroke="#1A1919" stroke-width=".7" d="M269.897 40.15h-15.979l.007-.383h.487a2.46 2.46 0 0 0 2.469-2.403V15.966a2.462 2.462 0 0 0-2.455-2.189h-.489l-.005-.38h11.263c1.661-.015 3.88-.396 4.595-.695V17.528l-.39-.006v-.681a2.288 2.288 0 0 0-2.157-2.274h-7.858V26.38h6.513a1.891 1.891 0 0 0 1.865-1.882v-.564l.376-.004v6.047l-.376-.004v-.563c0-1.016-.81-1.843-1.824-1.882h-6.554v11.45h5.528c4.084 0 5.652-2.094 6.841-5.003h.386l-2.243 6.173z"/>
        <path fill="#1A1919" d="M286.168 13.397c4.67 0 7.534 2.73 7.534 7.182 0 3.7-2.842 7.287-6.548 7.287.827.378 2.011 1.643 2.759 2.69 0 0 3.322 4.703 4.814 6.32 1.551 1.678 2.978 2.87 5.242 2.889v.383h-2.115c-3.586 0-5.512-1.915-6.724-3.35-.438-.519-4.781-6.784-5.077-7.153-1.008-1.255-2.132-2.579-3.54-2.579v-.354s.876.019 2.036-.012c2-.054 4.922-.526 6.016-3.968.17-.535.269-1.45.246-2.289-.096-3.455-1.912-5.67-4.782-5.826-1.965-.106-4.297-.01-4.798-.029v22.777a2.46 2.46 0 0 0 2.47 2.403h.486l.007.382h-8.42l.006-.382h.487a2.459 2.459 0 0 0 2.468-2.385V16.18a2.46 2.46 0 0 0-2.47-2.403h-.487l-.006-.38 10.396-.001z"/>
        <path stroke="#1A1919" stroke-width=".7" d="M286.168 13.397c4.67 0 7.534 2.73 7.534 7.182 0 3.7-2.842 7.287-6.548 7.287.827.378 2.011 1.643 2.759 2.69 0 0 3.322 4.703 4.814 6.32 1.551 1.678 2.978 2.87 5.242 2.889v.383h-2.115c-3.586 0-5.512-1.915-6.724-3.35-.438-.519-4.781-6.784-5.077-7.153-1.008-1.255-2.132-2.579-3.54-2.579v-.354s.876.019 2.036-.012c2-.054 4.922-.526 6.016-3.968.17-.535.269-1.45.246-2.289-.096-3.455-1.912-5.67-4.782-5.826-1.965-.106-4.297-.01-4.798-.029v22.777a2.46 2.46 0 0 0 2.47 2.403h.486l.007.382h-8.42l.006-.382h.487a2.459 2.459 0 0 0 2.468-2.385V16.18a2.46 2.46 0 0 0-2.47-2.403h-.487l-.006-.38 10.396-.001z"/>
        <path fill="#1A1919" d="M315.868 13.36c1.666-.01 3.92-.394 4.642-.695v4.804l-.389-.006v-.68a2.287 2.287 0 0 0-2.197-2.277h-7.305v22.89a2.46 2.46 0 0 0 2.468 2.372h.487l.006.382h-8.438l.006-.382h.488a2.46 2.46 0 0 0 2.467-2.341v-22.92h-7.31a2.288 2.288 0 0 0-2.198 2.275v.681l-.387.006v-4.804c.722.301 2.976.686 4.642.695h13.018z"/>
        <path stroke="#1A1919" stroke-width=".7" d="M315.868 13.36c1.666-.01 3.92-.394 4.642-.695v4.804l-.389-.006v-.68a2.287 2.287 0 0 0-2.197-2.277h-7.305v22.89a2.46 2.46 0 0 0 2.468 2.372h.487l.006.382h-8.438l.006-.382h.488a2.46 2.46 0 0 0 2.467-2.341v-22.92h-7.31a2.288 2.288 0 0 0-2.198 2.275v.681l-.387.006v-4.804c.722.301 2.976.686 4.642.695h13.018z"/>
    </g>
</svg>
